<svg width="162" height="25" viewBox="0 0 162 25" fill="none" xmlns="http://www.w3.org/2000/svg">
<path d="M0.44 21.024L18.328 19.456L16.888 12.96L3.032 14.56L1.368 13.024L1.816 2.368L3.448 0.927999L20.312 2.496L20.056 5.504L4.76 4.096L4.44 11.36L17.88 9.856L19.512 11.008L21.656 20.48L20.28 22.336L0.728 24L0.44 21.024ZM36.6938 9.472L38.5498 10.784L39.6698 23.328L36.6618 23.616L35.7018 12.768L29.0778 14.368L27.7018 23.808L24.6938 23.392L28.0218 1.152L30.9658 1.568L29.5578 11.136L36.6938 9.472ZM44.6733 23.648L43.2013 22.016L44.6413 3.968L46.0173 2.624L60.1613 1.184L61.8573 2.656L62.5293 22.304L60.9933 23.84L44.6733 23.648ZM59.4893 20.8L58.8813 4.32L47.5213 5.504L46.3693 20.64L59.4893 20.8ZM66.5175 23.52L67.5095 3.04L68.9495 1.6L84.7575 1.12L86.2935 2.432L87.6375 13.248L85.9735 14.912L83.4455 14.656L87.8295 22.4L85.2375 23.872L79.8295 14.272L73.0455 13.568L73.3655 10.56L84.4055 11.712L83.4775 4.16L70.4535 4.608L69.5255 23.68L66.5175 23.52Z" fill="#191A1B"/>
<path d="M98.6373 20.064L104.909 21.856L104.109 24.736L96.5893 22.624L95.5013 21.024L96.3013 12.416L89.9973 12.864L89.7413 9.824L96.5893 9.344L96.9093 5.984L99.9173 6.272L99.6613 9.152L106.861 8.64L107.053 11.616L99.3733 12.192L98.6373 20.064ZM110.4 5.248L113.312 4.448L114.272 8.032L111.36 8.832L110.4 5.248ZM109.6 23.392L111.168 10.688L114.176 11.04L112.608 23.744L109.6 23.392ZM116.843 22.944L119.371 2.432L122.059 1.664L134.955 18.016V1.792H137.963V22.336L135.275 23.264L121.931 6.4L119.819 23.296L116.843 22.944ZM157.471 22.912L156.895 22.24L143.679 24.352L141.951 22.528L143.807 15.2L145.247 14.048H155.359L154.687 9.056L143.167 11.872L142.431 8.96L155.583 5.728L157.439 7.008L159.231 20.288L161.471 20.928L160.671 23.808L157.471 22.912ZM156.063 19.296L155.775 17.088H146.431L145.439 20.992L156.063 19.296Z" fill="#15CEB3"/>
</svg>
